<?xml version="1.0" ?><!DOCTYPE svg  PUBLIC '-//W3C//DTD SVG 1.1//EN'  'http://www.w3.org/Graphics/SVG/1.1/DTD/svg11.dtd'><svg height="1.82666in" style="shape-rendering:geometricPrecision; text-rendering:geometricPrecision; image-rendering:optimizeQuality; fill-rule:evenodd; clip-rule:evenodd" viewBox="0 0 6827 6827" width="1.82666in" xml:space="preserve" xmlns="http://www.w3.org/2000/svg" xmlns:xlink="http://www.w3.org/1999/xlink"><defs><style type="text/css">
   <![CDATA[
    .fil5 {fill:none}
    .fil1 {fill:#013668}
    .fil2 {fill:#80CBC4}
    .fil3 {fill:#F6FFFD}
    .fil4 {fill:#FAC23C}
    .fil0 {fill:#013668;fill-rule:nonzero}
   ]]>
  </style></defs><g id="Layer_x0020_1"><g id="_271572488"><path class="fil0" d="M3413 853c707,0 1347,287 1810,750 463,463 750,1103 750,1810 0,707 -287,1347 -750,1810 -463,463 -1103,750 -1810,750 -707,0 -1347,-287 -1810,-750 -463,-463 -750,-1103 -750,-1810 0,-707 287,-1347 750,-1810 463,-463 1103,-750 1810,-750zm1697 863c-434,-434 -1034,-703 -1697,-703 -663,0 -1263,269 -1697,703 -434,434 -703,1034 -703,1697 0,663 269,1263 703,1697 434,434 1034,703 1697,703 663,0 1263,-269 1697,-703 434,-434 703,-1034 703,-1697 0,-663 -269,-1263 -703,-1697z"/><path class="fil0" d="M4920 4183c-144,262 -385,564 -684,780 -242,174 -522,293 -822,293 -300,0 -581,-119 -822,-293 -302,-218 -544,-523 -688,-786 -21,-39 -7,-87 32,-108 12,-7 25,-10 38,-10l0 0 2880 0c44,0 80,36 80,80 0,16 -5,32 -13,44zm-777 651c237,-171 435,-400 571,-615l-2601 0c136,215 334,444 571,615 216,156 466,263 729,263 264,0 513,-107 729,-263z"/><path class="fil0" d="M2399 2037c134,0 252,80 335,208 77,119 124,280 124,458 0,177 -47,339 -124,458 -83,129 -202,208 -335,208 -134,0 -252,-80 -335,-208 -77,-119 -124,-280 -124,-458 0,-177 47,-339 124,-458 83,-129 202,-208 335,-208zm201 295c-54,-83 -125,-135 -201,-135 -76,0 -147,52 -201,135 -61,93 -98,224 -98,371 0,146 37,277 98,371 54,83 125,135 201,135 76,0 147,-52 201,-135 61,-93 98,-224 98,-371 0,-146 -37,-277 -98,-371z"/><path class="fil0" d="M4427 2037c134,0 252,80 335,208 77,119 124,280 124,458 0,177 -47,339 -124,458 -83,129 -202,208 -335,208 -134,0 -252,-80 -335,-208 -77,-119 -124,-280 -124,-458 0,-177 47,-339 124,-458 83,-129 202,-208 335,-208zm201 295c-54,-83 -125,-135 -201,-135 -76,0 -147,52 -201,135 -61,93 -98,224 -98,371 0,146 37,277 98,371 54,83 125,135 201,135 76,0 147,-52 201,-135 61,-93 98,-224 98,-371 0,-146 -37,-277 -98,-371z"/><ellipse class="fil1" cx="2435" cy="2873" rx="139" ry="193"/><ellipse class="fil1" cx="4457" cy="2873" rx="139" ry="193"/></g><path class="fil2" d="M3968 2703c0,-177 47,-339 124,-458 83,-129 202,-208 335,-208 134,0 252,80 335,208 77,119 124,280 124,458 0,177 -47,339 -124,458 -83,129 -202,208 -335,208 -134,0 -252,-80 -335,-208 -77,-119 -124,-280 -124,-458zm1143 -986c-434,-434 -1034,-703 -1697,-703 -663,0 -1263,269 -1697,703 -434,434 -703,1034 -703,1697 0,663 269,1263 703,1697 434,434 1034,703 1697,703 663,0 1263,-269 1697,-703 434,-434 703,-1034 703,-1697 0,-663 -269,-1263 -703,-1697zm-3137 2343l2880 0c44,0 80,36 80,80 0,16 -5,32 -13,44 -144,262 -385,564 -684,780 -242,174 -522,293 -822,293 -300,0 -581,-119 -822,-293 -302,-218 -544,-523 -688,-786 -21,-39 -7,-87 32,-108 12,-7 25,-10 38,-10l0 0zm761 -1814c77,119 124,280 124,458 0,177 -47,339 -124,458 -83,129 -202,208 -335,208 -134,0 -252,-80 -335,-208 -77,-119 -124,-280 -124,-458 0,-177 47,-339 124,-458 83,-129 202,-208 335,-208 134,0 252,80 335,208z"/><path class="fil3" d="M2699 2703c0,-146 -37,-277 -98,-371 -54,-83 -125,-135 -201,-135 -76,0 -147,52 -201,135 -61,93 -98,224 -98,371 0,146 37,277 98,371 54,83 125,135 201,135 76,0 147,-52 201,-135 61,-93 98,-224 98,-371zm-264 -22c77,0 139,86 139,193 0,106 -62,193 -139,193 -77,0 -139,-86 -139,-193 0,-106 62,-193 139,-193z"/><path class="fil3" d="M4226 2332c-61,93 -98,224 -98,371 0,146 37,277 98,371 54,83 125,135 201,135 76,0 147,-52 201,-135 61,-93 98,-224 98,-371 0,-146 -37,-277 -98,-371 -54,-83 -125,-135 -201,-135 -76,0 -147,52 -201,135zm231 349c77,0 139,86 139,193 0,106 -62,193 -139,193 -77,0 -139,-86 -139,-193 0,-106 62,-193 139,-193z"/><path class="fil4" d="M4714 4219l-2601 0c136,215 334,444 571,615 216,156 466,263 729,263 264,0 513,-107 729,-263 237,-171 435,-400 571,-615z"/></g><rect class="fil5" height="6827" width="6827"/></svg>